<?xml version="1.0" encoding="UTF-8"?>
<svg width="700pt" height="700pt" version="1.1" viewBox="0 0 700 700" xmlns="http://www.w3.org/2000/svg">
 <g fill-rule="evenodd">
  <path d="m349.91 314.59 3.9102-0.39844v0.40625c5.1016 0.19531 10.277 1.1289 15.02 2.9688 0.042969 0.015626 0.082031 0.03125 0.125 0.050782l8.5547 3.4453-27.527 10.609-25.094-9.6719 7.8125-3.5977c0.39844-0.18359 0.80078-0.35938 1.207-0.53125 4.9844-2.0781 10.484-3.1172 15.871-3.2773 0.039062 0 0.074219-0.003906 0.11328-0.003906z"/>
  <path d="m540.93 384.2c-0.019532 0.28125 0 0.61328-0.007813 0.875l-0.53906 19.984-143.48-55.305 75.086-29.867 1.6719 2.1992c5.5234 7.2773 11.805 14.129 18.805 20.008 10.375 8.7148 22.77 14.762 35.961 17.809 3.1133 0.71875 6.3203 2.9805 8.3555 5.375 4.4414 5.2305 5.1484 12.172 4.1836 18.738l-0.027344 0.1875z"/>
  <path d="m312.98 353.68 27.27 10.848-163.5 65.035-0.56641 0.039062c-4.7617 0.32422-9.5273-0.63672-13.008-4.1094-2.4258-2.4219-3.75-5.6133-4.2773-8.9609l-0.45312-2.8867 2.7227-1.0625c50.121-19.57 100.28-39.039 150.48-58.391z"/>
  <path d="m159.07 384.2-0.027344-0.1875c-0.96484-6.5703-0.25781-13.508 4.1836-18.738 2.0352-2.3984 5.2383-4.6562 8.3555-5.375 13.191-3.0469 25.586-9.0898 35.961-17.809 7-5.8828 13.281-12.73 18.805-20.008l1.6719-2.1992 75.086 29.867-8.6523 3.3398c-43.367 16.738-86.703 33.551-130.01 50.445l-4.8125 1.8789-0.55078-20.34c-0.007813-0.25781 0.007813-0.58984-0.007813-0.875z"/>
  <path d="m310.93 345.11-82.797-32.938-0.23438-0.09375-41.43-16.48c-5.7109-1.8164-12.539-5.3672-17.203-9-4.7656-3.7109-8.9297-8.6641-9.6133-14.875l-0.65625-5.9375 159.64 61.535c0.19922 0.078126 0.39844 0.15234 0.59375 0.23047l28.918 11.145c0.36328 0.14063 0.72656 0.28125 1.0898 0.41797l36.445 14.074c0.19531 0.066406 0.375 0.11719 0.56641 0.19141l155.29 59.855-0.38672 2.8477c-0.46094 3.3906-1.7227 6.6641-4.1133 9.1719-3.4844 3.6523-8.3516 4.6758-13.234 4.3398l-0.56641-0.039062-171.3-68.145c-0.40625-0.16016-0.8125-0.32422-1.2188-0.48438l-39.789-15.828z"/>
  <path d="m521.02 273.49c0.13281-0.050782 0.26562-0.10156 0.40234-0.15625l19.582-7.5469-0.65625 5.9375c-0.12891 1.1836-0.39062 2.3438-0.77344 3.4688-1.582 4.6758-5.0898 8.457-8.9375 11.414-3.25 2.5-6.9141 4.5625-10.625 6.293-2.1094 0.98438-4.1758 1.7812-6.3281 2.6367l-41.512 16.512c-0.125 0.050781-0.24609 0.097657-0.37109 0.14844l-84.797 33.73-26.957-10.391 23.387-9.0156c0.28906-0.11328 0.58203-0.22266 0.87109-0.33594l136.71-52.699z"/>
  <path d="m355.38 303.05c2.4961-8.6367 6.8594-16.273 13-22.836 12.062-12.902 29.473-20.133 46.207-24.711 8.8789-2.4258 17.93-4.207 27.004-5.7188 7.9453-1.3242 15.922-2.4102 23.875-3.6836 5.0938-0.81641 10.781-1.7148 15.68-3.332 0.89844-0.29688 4.707-1.6953 5.0078-2.7578 0.007812-0.023438 0.007812-0.046875 0.007812-0.074219v-143.27l31.559 22.379-1.3711 148.51-132.54 51.09-1.6562-1.4805c-3.0781-2.7539-6.8164-4.8398-10.648-6.3398-4.1602-1.6289-8.5977-2.6523-13.035-3.1562l-4.2734-0.48828 1.1953-4.1328z"/>
  <path d="m341.62 308.17c-3.5703 0.63281-7.1133 1.6172-10.461 3.0117-3.8828 1.6172-7.6523 3.8672-10.66 6.832l-1.6719 1.6445-136.46-52.598-0.09375-148 31.578-22.391v143.32c0 2.1797 1.8828 3.6367 3.9727 3.625 3.0234-0.019532 6.2148 0.21875 9.2266 0.44531 5.8516 0.4375 11.699 1.082 17.512 1.8945 15.965 2.2344 32.215 5.8086 47.348 11.398 22.176 8.1875 45.375 22.152 52.559 46.195l1.168 3.9102-4.0156 0.71094z"/>
  <path d="m346.39 166.86-0.019531 121.32-6.4258-7.7188c-24.879-29.883-78.57-41.086-115.45-43.707l-3.375-0.23828v-142.95l3.9727 0.37109c34.098 3.1836 79.371 11.895 104.86 37.059 6.0781 6.0039 11.207 13.18 14.148 21.246 1.1758 3.2305 2.2734 7.4258 2.2969 10.91l0.027344 3.707h-0.027344z"/>
  <path d="m353.61 163.94v-0.73438c0.007812-3.418 1.0938-7.6055 2.2344-10.773 2.9023-8.0664 8-15.258 14.055-21.27 25.457-25.289 70.867-34.031 105.02-37.219l3.9727-0.37109v142.96l-3.3672 0.24609c-36.883 2.7031-90.48 13.973-115.51 43.672l-6.4141 7.6094 0.019531-124.11v-0.003906z"/>
  <path d="m154.67 437.36h390.66c8.0234 0 14.535 6.5117 14.535 14.535s-6.5117 14.535-14.535 14.535h-390.66c-8.0234 0-14.535-6.5117-14.535-14.535s6.5117-14.535 14.535-14.535z"/>
 </g>
</svg>
