<?xml version="1.0" encoding="iso-8859-1"?>
<!-- Uploaded to: SVG Repo, www.svgrepo.com, Generator: SVG Repo Mixer Tools -->
<svg fill="#000000" height="800px" width="800px" version="1.1" id="Layer_1" xmlns="http://www.w3.org/2000/svg" xmlns:xlink="http://www.w3.org/1999/xlink" 
	 viewBox="0 0 512 512" xml:space="preserve">
<g>
	<g>
		<path d="M378.704,61.63c-56.613,0-104.141,16.872-123.539,41.32c-19.396-24.449-66.229-41.32-122.84-41.32
			C57.889,61.63,0,90.782,0,128v312.889c0,5.236,3.69,9.482,8.926,9.482c5.234,0,9.202-4.245,9.202-9.482
			c0-22.424,46.588-47.407,113.639-47.407s113.708,24.984,113.708,47.407c0,5.236,4.211,9.482,9.447,9.482s9.463-4.245,9.463-9.482
			c0-22.424,46.72-47.407,113.771-47.407s113.773,24.984,113.773,47.407c0,5.236,4.799,9.482,10.035,9.482S512,446.125,512,440.889
			V128C512,90.782,453.139,61.63,378.704,61.63z M246.518,406.217c-23.704-19.146-64.935-31.699-113.778-31.699
			c-48.843,0-92.444,12.553-113.778,31.699V128c0-22.423,46.727-47.407,113.778-47.407S246.518,105.577,246.518,128V406.217z
			 M493.037,406.217c-23.704-19.146-64.935-31.699-113.778-31.699s-92.444,12.553-113.778,31.699V128
			c0-22.423,46.727-47.407,113.778-47.407S493.037,105.577,493.037,128V406.217z"/>
	</g>
</g>
</svg>